ScienceGothic-ExpS.ufo
<glyph name="asterisk" format="2">
  <advance width="1401"/>
  <unicode hex="002A"/>
  <outline>
    <contour>
      <point x="649" y="778" type="line"/>
      <point x="689" y="1007" type="line"/>
      <point x="378" y="843" type="line"/>
      <point x="329" y="964" type="line"/>
      <point x="627" y="1118" type="line"/>
      <point x="392" y="1266" type="line"/>
      <point x="476" y="1380" type="line"/>
      <point x="725" y="1219" type="line"/>
      <point x="766" y="1448" type="line"/>
      <point x="904" y="1448" type="line"/>
      <point x="863" y="1215" type="line"/>
      <point x="1174" y="1378" type="line"/>
      <point x="1223" y="1256" type="line"/>
      <point x="930" y="1105" type="line"/>
      <point x="1161" y="959" type="line"/>
      <point x="1077" y="846" type="line"/>
      <point x="827" y="1007" type="line"/>
      <point x="787" y="778" type="line"/>
    </contour>
  </outline>
</glyph>
<glyph name="hyphen" format="2">
  <advance width="1595.5"/>
  <unicode hex="002D"/>
  <outline>
    <contour>
      <point x="220.544" y="712" type="line"/>
      <point x="1383.54" y="712" type="line"/>
      <point x="1344.54" y="488" type="line"/>
      <point x="181.544" y="488" type="line"/>
    </contour>
  </outline>
  <guideline angle="0" x="0" y="600"/>
</glyph>
<glyph name="one" format="2">
  <advance width="1237" height="1448"/>
  <unicode hex="0031"/>
  <outline>
    <contour>
      <point x="450" y="0" type="line"/>
      <point x="714" y="0" type="line"/>
      <point x="961" y="1414" type="line"/>
      <point x="261" y="1292" type="line"/>
      <point x="232" y="1122" type="line"/>
      <point x="650" y="1144" type="line"/>
    </contour>
  </outline>
  <guideline angle="90" color="0.4,0.4,0.4,1" name="halfwidth" x="619" y="0"/>
</glyph>
<glyph name="H" format="2">
  <advance width="2928" height="1448"/>
  <unicode hex="0048"/>
  <anchor x="1615" y="1550" name="top"/>
  <anchor x="1318" y="-150" name="bottom"/>
  <anchor x="212" y="700" name="left"/>
  <outline>
    <contour>
      <point x="190" y="0" type="line"/>
      <point x="454" y="0" type="line"/>
      <point x="560" y="608" type="line"/>
      <point x="2340" y="608" type="line"/>
      <point x="2234" y="0" type="line"/>
      <point x="2498" y="0" type="line"/>
      <point x="2742" y="1400" type="line"/>
      <point x="2478" y="1400" type="line"/>
      <point x="2383" y="852" type="line"/>
      <point x="603" y="852" type="line"/>
      <point x="698" y="1400" type="line"/>
      <point x="434" y="1400" type="line"/>
    </contour>
  </outline>
  <guideline angle="260.11" color="1,0,0,1" x="1344" y="0"/>
</glyph>
<glyph name="N" format="2">
  <advance width="2952"/>
  <unicode hex="004E"/>
  <anchor x="1627" y="1550" name="top"/>
  <anchor x="1330" y="-150" name="bottom"/>
  <outline>
    <contour>
      <point x="190" y="0" type="line"/>
      <point x="434" y="0" type="line"/>
      <point x="624" y="1090" type="line"/>
      <point x="2318" y="0" type="line"/>
      <point x="2522" y="0" type="line"/>
      <point x="2766" y="1400" type="line"/>
      <point x="2522" y="1400" type="line"/>
      <point x="2332" y="310" type="line"/>
      <point x="638" y="1400" type="line"/>
      <point x="434" y="1400" type="line"/>
    </contour>
  </outline>
</glyph>
<glyph name="R" format="2">
  <advance width="2840"/>
  <unicode hex="0052"/>
  <anchor x="1420" y="-150" name="bottom"/>
  <anchor x="1420" y="1550" name="top"/>
  <outline>
    <contour>
      <point x="190" y="0" type="line"/>
      <point x="454" y="0" type="line"/>
      <point x="546" y="528" type="line"/>
      <point x="1270" y="528" type="line"/>
      <point x="2117" y="0" type="line"/>
      <point x="2596" y="0" type="line"/>
      <point x="1729" y="528" type="line"/>
      <point x="2210" y="528" type="line" smooth="yes"/>
      <point x="2296" y="528"/>
      <point x="2431" y="560"/>
      <point x="2528" y="625"/>
      <point x="2588" y="723"/>
      <point x="2600" y="788" type="qcurve" smooth="yes"/>
      <point x="2659" y="1126" type="line" smooth="yes"/>
      <point x="2674" y="1212"/>
      <point x="2641" y="1319"/>
      <point x="2560" y="1379"/>
      <point x="2438" y="1400"/>
      <point x="2362" y="1400" type="qcurve" smooth="yes"/>
      <point x="434" y="1400" type="line"/>
    </contour>
    <contour>
      <point x="589" y="772" type="line"/>
      <point x="656" y="1156" type="line"/>
      <point x="2294" y="1156" type="line" smooth="yes"/>
      <point x="2320" y="1156"/>
      <point x="2358" y="1144"/>
      <point x="2380" y="1120"/>
      <point x="2387" y="1082"/>
      <point x="2382" y="1056" type="qcurve" smooth="yes"/>
      <point x="2350" y="872" type="line" smooth="yes"/>
      <point x="2345" y="842"/>
      <point x="2325" y="803"/>
      <point x="2294" y="781"/>
      <point x="2253" y="772"/>
      <point x="2227" y="772" type="qcurve" smooth="yes"/>
    </contour>
  </outline>
  <guideline angle="90" color="0.4,0.4,0.4,1" name="halfwidth" x="1420" y="0"/>
</glyph>
<glyph name="c" format="2">
  <advance width="2107"/>
  <unicode hex="0063"/>
  <anchor x="1164" y="1150" name="top"/>
  <anchor x="937" y="-150" name="bottom"/>
  <outline>
    <contour>
      <point x="172" y="204" type="line"/>
      <point x="277" y="806" type="line" smooth="yes"/>
      <point x="287" y="861"/>
      <point x="329" y="938"/>
      <point x="400" y="987"/>
      <point x="501" y="1010"/>
      <point x="569" y="1010" type="qcurve" smooth="yes"/>
      <point x="1703" y="1010" type="line" smooth="yes"/>
      <point x="1772" y="1010"/>
      <point x="1865" y="987"/>
      <point x="1918" y="938"/>
      <point x="1933" y="861"/>
      <point x="1923" y="806" type="qcurve" smooth="yes"/>
      <point x="1903" y="690" type="line"/>
      <point x="1647" y="644" type="line"/>
      <point x="1672" y="786" type="line"/>
      <point x="1672" y="786"/>
      <point x="1672" y="786"/>
      <point x="1672" y="786" type="qcurve"/>
      <point x="522" y="786" type="line"/>
      <point x="522" y="786"/>
      <point x="522" y="786"/>
      <point x="522" y="786" type="qcurve"/>
      <point x="422" y="214" type="line"/>
      <point x="422" y="214"/>
      <point x="422" y="214"/>
      <point x="422" y="214" type="qcurve"/>
      <point x="1576" y="214" type="line"/>
      <point x="1576" y="214"/>
      <point x="1576" y="214"/>
      <point x="1576" y="214" type="qcurve"/>
      <point x="1602" y="366" type="line"/>
      <point x="1842" y="316" type="line"/>
      <point x="1822" y="204" type="line" smooth="yes"/>
      <point x="1812" y="146"/>
      <point x="1770" y="65"/>
      <point x="1700" y="14"/>
      <point x="1599" y="-10"/>
      <point x="1529" y="-10" type="qcurve" smooth="yes"/>
      <point x="391" y="-10" type="line" smooth="yes"/>
      <point x="321" y="-10"/>
      <point x="228" y="14"/>
      <point x="175" y="65"/>
      <point x="162" y="146"/>
      <point x="172" y="204" type="qcurve"/>
    </contour>
  </outline>
</glyph>
<glyph name="q" format="2">
  <advance width="2216" height="1448"/>
  <unicode hex="0071"/>
  <anchor x="1257" y="1598" name="top"/>
  <anchor x="952" y="-150" name="bottom"/>
  <outline>
    <contour>
      <point x="172" y="204" type="line"/>
      <point x="277" y="806" type="line" smooth="yes"/>
      <point x="286" y="860"/>
      <point x="329" y="937"/>
      <point x="399" y="987"/>
      <point x="501" y="1010"/>
      <point x="569" y="1010" type="qcurve" smooth="yes"/>
      <point x="1513" y="1010" type="line" smooth="yes"/>
      <point x="1613" y="1010"/>
      <point x="1723" y="956"/>
      <point x="1734" y="900" type="qcurve"/>
      <point x="1751" y="1000" type="line"/>
      <point x="1999" y="1000" type="line"/>
      <point x="1750" y="-428" type="line"/>
      <point x="1502" y="-428" type="line"/>
      <point x="1594" y="100" type="line"/>
      <point x="1563" y="44"/>
      <point x="1435" y="-10"/>
      <point x="1335" y="-10" type="qcurve" smooth="yes"/>
      <point x="391" y="-10" type="line" smooth="yes"/>
      <point x="322" y="-10"/>
      <point x="229" y="14"/>
      <point x="176" y="65"/>
      <point x="162" y="146"/>
      <point x="172" y="204" type="qcurve"/>
    </contour>
    <contour>
      <point x="422" y="214" type="line"/>
      <point x="422" y="214"/>
      <point x="422" y="214"/>
      <point x="422" y="214" type="qcurve"/>
      <point x="1614" y="214" type="line"/>
      <point x="1714" y="786" type="line"/>
      <point x="522" y="786" type="line"/>
      <point x="522" y="786"/>
      <point x="522" y="786"/>
      <point x="522" y="786" type="qcurve"/>
    </contour>
  </outline>
</glyph>
<glyph name="r" format="2">
  <advance width="1799" height="1448"/>
  <unicode hex="0072"/>
  <anchor x="1059" y="1150" name="top"/>
  <anchor x="247" y="-150" name="bottom"/>
  <anchor x="136" y="500" name="left"/>
  <outline>
    <contour>
      <point x="148" y="0" type="line"/>
      <point x="323" y="1000" type="line"/>
      <point x="571" y="1000" type="line"/>
      <point x="552" y="896" type="line"/>
      <point x="591" y="947"/>
      <point x="735" y="1000"/>
      <point x="853" y="1000" type="qcurve" smooth="yes"/>
      <point x="1423" y="1000" type="line" smooth="yes"/>
      <point x="1508" y="1000"/>
      <point x="1623" y="972"/>
      <point x="1689" y="912"/>
      <point x="1709" y="817"/>
      <point x="1697" y="750" type="qcurve" smooth="yes"/>
      <point x="1685" y="681" type="line"/>
      <point x="1429" y="634" type="line"/>
      <point x="1453" y="776" type="line"/>
      <point x="1453" y="776"/>
      <point x="1453" y="776"/>
      <point x="1453" y="776" type="qcurve"/>
      <point x="531" y="776" type="line"/>
      <point x="396" y="0" type="line"/>
    </contour>
  </outline>
  <guideline angle="0" x="0" y="988"/>
  <guideline angle="0" x="0" y="870"/>
</glyph>
<glyph name="t" format="2">
  <advance width="1339"/>
  <unicode hex="0074"/>
  <anchor x="788" y="1394" name="top"/>
  <anchor x="517" y="-160" name="bottom"/>
  <anchor x="793" y="1400" name="right"/>
  <outline>
    <contour>
      <point x="554.213" y="-10" type="line" smooth="yes"/>
      <point x="485.213" y="-10"/>
      <point x="392.213" y="14"/>
      <point x="340.213" y="65"/>
      <point x="326.213" y="146"/>
      <point x="336.213" y="204" type="qcurve" smooth="yes"/>
      <point x="439.213" y="796" type="line"/>
      <point x="127.213" y="796" type="line"/>
      <point x="163.213" y="1000" type="line"/>
      <point x="475.213" y="1000" type="line"/>
      <point x="517.213" y="1244" type="line"/>
      <point x="765.213" y="1244" type="line"/>
      <point x="723.213" y="1000" type="line"/>
      <point x="1275.21" y="1000" type="line"/>
      <point x="1239.21" y="796" type="line"/>
      <point x="687.213" y="796" type="line"/>
      <point x="582.213" y="194" type="line"/>
      <point x="582.213" y="194"/>
      <point x="582.213" y="194"/>
      <point x="582.213" y="194" type="qcurve"/>
      <point x="1126.21" y="194" type="line"/>
      <point x="1048.21" y="-10" type="line"/>
    </contour>
  </outline>
</glyph>
<glyph name="periodcentered" format="2">
  <advance width="855"/>
  <unicode hex="00B7"/>
  <outline>
    <contour>
      <point x="258" y="561" type="line"/>
      <point x="268" y="620" type="line" smooth="yes"/>
      <point x="276" y="663"/>
      <point x="288" y="710"/>
      <point x="315" y="733"/>
      <point x="364" y="737"/>
      <point x="408" y="737" type="qcurve" smooth="yes"/>
      <point x="464" y="737" type="line" smooth="yes"/>
      <point x="508" y="737"/>
      <point x="555" y="733"/>
      <point x="574" y="710"/>
      <point x="571" y="663"/>
      <point x="563" y="620" type="qcurve" smooth="yes"/>
      <point x="553" y="561" type="line" smooth="yes"/>
      <point x="545" y="517"/>
      <point x="532" y="469"/>
      <point x="505" y="446"/>
      <point x="456" y="442"/>
      <point x="412" y="442" type="qcurve" smooth="yes"/>
      <point x="356" y="442" type="line" smooth="yes"/>
      <point x="312" y="442"/>
      <point x="265" y="446"/>
      <point x="246" y="469"/>
      <point x="250" y="517"/>
      <point x="258" y="561" type="qcurve"/>
    </contour>
  </outline>
</glyph>
<glyph name="oslash" format="2">
  <advance width="2214" height="1448"/>
  <unicode hex="00F8"/>
  <anchor x="1188" y="1150" name="top"/>
  <outline>
    <contour>
      <point x="178" y="204" type="line"/>
      <point x="283" y="806" type="line" smooth="yes"/>
      <point x="292" y="860"/>
      <point x="335" y="937"/>
      <point x="405" y="987"/>
      <point x="507" y="1010"/>
      <point x="575" y="1010" type="qcurve" smooth="yes"/>
      <point x="1751" y="1010" type="line" smooth="yes"/>
      <point x="1888" y="1010"/>
      <point x="1990" y="914"/>
      <point x="1971" y="806" type="qcurve" smooth="yes"/>
      <point x="1866" y="204" type="line" smooth="yes"/>
      <point x="1856" y="146"/>
      <point x="1814" y="65"/>
      <point x="1744" y="14"/>
      <point x="1643" y="-10"/>
      <point x="1573" y="-10" type="qcurve" smooth="yes"/>
      <point x="397" y="-10" type="line" smooth="yes"/>
      <point x="328" y="-10"/>
      <point x="235" y="14"/>
      <point x="182" y="65"/>
      <point x="168" y="146"/>
      <point x="178" y="204" type="qcurve"/>
    </contour>
    <contour>
      <point x="428" y="214" type="line"/>
      <point x="428" y="214"/>
      <point x="428" y="214"/>
      <point x="428" y="214" type="qcurve"/>
      <point x="1620" y="214" type="line"/>
      <point x="1620" y="214"/>
      <point x="1620" y="214"/>
      <point x="1620" y="214" type="qcurve"/>
      <point x="1720" y="786" type="line"/>
      <point x="1720" y="786"/>
      <point x="1720" y="786"/>
      <point x="1720" y="786" type="qcurve"/>
      <point x="528" y="786" type="line"/>
      <point x="528" y="786"/>
      <point x="528" y="786"/>
      <point x="528" y="786" type="qcurve"/>
    </contour>
    <contour>
      <point x="143" y="-30" type="line"/>
      <point x="89" y="124" type="line"/>
      <point x="330" y="238" type="line"/>
      <point x="330" y="238" type="line"/>
      <point x="1795" y="930" type="line"/>
      <point x="1797" y="931" type="line"/>
      <point x="2004" y="1030" type="line"/>
      <point x="2059" y="878" type="line"/>
      <point x="1844" y="776" type="line"/>
      <point x="1844" y="776" type="line"/>
      <point x="376" y="81" type="line"/>
      <point x="372" y="79" type="line"/>
    </contour>
  </outline>
  <guideline angle="0" x="0" y="1046"/>
  <guideline angle="0" x="0" y="-26"/>
</glyph>
<glyph name="dcroat" format="2">
  <advance width="2233"/>
  <unicode hex="0111"/>
  <anchor x="1228" y="1598" name="top"/>
  <outline>
    <contour>
      <point x="393" y="-10" type="line" smooth="yes"/>
      <point x="324" y="-10"/>
      <point x="231" y="14"/>
      <point x="178" y="65"/>
      <point x="164" y="146"/>
      <point x="173" y="204" type="qcurve" smooth="yes"/>
      <point x="277" y="806" type="line" smooth="yes"/>
      <point x="287" y="860"/>
      <point x="329" y="937"/>
      <point x="400" y="987"/>
      <point x="501" y="1010"/>
      <point x="569" y="1010" type="qcurve" smooth="yes"/>
      <point x="1513" y="1010" type="line" smooth="yes"/>
      <point x="1613" y="1010"/>
      <point x="1723" y="956"/>
      <point x="1734" y="900" type="qcurve"/>
      <point x="1767" y="1093" type="line"/>
      <point x="1045" y="1093" type="line"/>
      <point x="1083" y="1317" type="line"/>
      <point x="1806" y="1317" type="line"/>
      <point x="1828" y="1448" type="line"/>
      <point x="2076" y="1448" type="line"/>
      <point x="2053" y="1317" type="line"/>
      <point x="2205" y="1317" type="line"/>
      <point x="2167" y="1093" type="line"/>
      <point x="2015" y="1093" type="line"/>
      <point x="1827" y="0" type="line"/>
      <point x="1579" y="0" type="line"/>
      <point x="1596" y="100" type="line"/>
      <point x="1565" y="44"/>
      <point x="1437" y="-10"/>
      <point x="1337" y="-10" type="qcurve" smooth="yes"/>
    </contour>
    <contour>
      <point x="1714" y="786" type="line"/>
      <point x="522" y="786" type="line"/>
      <point x="522" y="786"/>
      <point x="522" y="786"/>
      <point x="522" y="786" type="qcurve"/>
      <point x="423" y="214" type="line"/>
      <point x="423" y="214"/>
      <point x="423" y="214"/>
      <point x="423" y="214" type="qcurve"/>
      <point x="1615" y="214" type="line"/>
    </contour>
  </outline>
</glyph>
<glyph name="uni0307" format="2">
  <unicode hex="0307"/>
  <anchor x="82" y="1150" name="_top"/>
  <anchor x="153" y="1550" name="_bottom"/>
  <anchor x="139" y="1470" name="top"/>
  <outline>
    <contour>
      <point x="-13" y="1302" type="line" smooth="yes"/>
      <point x="-7" y="1334"/>
      <point x="2" y="1370"/>
      <point x="23" y="1387"/>
      <point x="60" y="1390"/>
      <point x="93" y="1390" type="qcurve" smooth="yes"/>
      <point x="153" y="1390" type="line" smooth="yes"/>
      <point x="186" y="1390"/>
      <point x="222" y="1387"/>
      <point x="236" y="1370"/>
      <point x="233" y="1334"/>
      <point x="227" y="1302" type="qcurve" smooth="yes"/>
      <point x="216" y="1240" type="line" smooth="yes"/>
      <point x="210" y="1208"/>
      <point x="201" y="1172"/>
      <point x="180" y="1155"/>
      <point x="143" y="1152"/>
      <point x="110" y="1152" type="qcurve" smooth="yes"/>
      <point x="50" y="1152" type="line" smooth="yes"/>
      <point x="17" y="1152"/>
      <point x="-19" y="1155"/>
      <point x="-33" y="1172"/>
      <point x="-30" y="1208"/>
      <point x="-24" y="1240" type="qcurve" smooth="yes"/>
    </contour>
  </outline>
</glyph>
<glyph name="uni030A" format="2">
  <unicode hex="030A"/>
  <anchor x="75" y="1150" name="_top"/>
  <anchor x="151" y="1584" name="top"/>
  <outline>
    <contour>
      <point x="-143" y="1267" type="line"/>
      <point x="-154" y="1207"/>
      <point x="-150" y="1134"/>
      <point x="-107" y="1093"/>
      <point x="-15" y="1079"/>
      <point x="62" y="1079" type="qcurve" smooth="yes"/>
      <point x="139" y="1079"/>
      <point x="236" y="1093"/>
      <point x="294" y="1134"/>
      <point x="324" y="1207"/>
      <point x="334" y="1267" type="qcurve" smooth="yes"/>
      <point x="345" y="1327"/>
      <point x="341" y="1400"/>
      <point x="297" y="1440"/>
      <point x="205" y="1454"/>
      <point x="128" y="1454" type="qcurve" smooth="yes"/>
      <point x="51" y="1454"/>
      <point x="-45" y="1440"/>
      <point x="-103" y="1400"/>
      <point x="-133" y="1327"/>
      <point x="-143" y="1267" type="qcurve"/>
    </contour>
    <contour>
      <point x="-16" y="1267" type="line"/>
      <point x="-12" y="1288"/>
      <point x="-2" y="1317"/>
      <point x="23" y="1334"/>
      <point x="69" y="1342"/>
      <point x="108" y="1342" type="qcurve" smooth="yes"/>
      <point x="147" y="1342"/>
      <point x="191" y="1334"/>
      <point x="210" y="1317"/>
      <point x="211" y="1288"/>
      <point x="207" y="1267" type="qcurve" smooth="yes"/>
      <point x="203" y="1246"/>
      <point x="193" y="1217"/>
      <point x="167" y="1199"/>
      <point x="121" y="1191"/>
      <point x="82" y="1191" type="qcurve" smooth="yes"/>
      <point x="43" y="1191"/>
      <point x="-1" y="1199"/>
      <point x="-20" y="1217"/>
      <point x="-20" y="1246"/>
      <point x="-16" y="1267" type="qcurve"/>
    </contour>
  </outline>
</glyph>
<glyph name="uni0436" format="2">
  <advance width="3105" height="1448"/>
  <unicode hex="0436"/>
  <anchor x="1634" y="1150" name="top"/>
  <outline>
    <contour>
      <point x="-93" y="0" type="line"/>
      <point x="432" y="0" type="line"/>
      <point x="1392" y="478" type="line"/>
      <point x="1309" y="0" type="line"/>
      <point x="1557" y="0" type="line"/>
      <point x="1640" y="478" type="line"/>
      <point x="2434" y="0" type="line"/>
      <point x="2959" y="0" type="line"/>
      <point x="2041" y="535" type="line"/>
      <point x="2954" y="1000" type="line"/>
      <point x="2536" y="1000" type="line"/>
      <point x="1651" y="540" type="line"/>
      <point x="1732" y="1000" type="line"/>
      <point x="1484" y="1000" type="line"/>
      <point x="1403" y="540" type="line"/>
      <point x="680" y="1000" type="line"/>
      <point x="262" y="1000" type="line"/>
      <point x="1011" y="535" type="line"/>
    </contour>
  </outline>
</glyph>
<glyph name="uni0437" format="2">
  <advance width="2140"/>
  <unicode hex="0437"/>
  <anchor x="1124" y="1150" name="top"/>
  <anchor x="1031" y="-0" name="ogonek"/>
  <outline>
    <contour>
      <point x="356" y="-10" type="line"/>
      <point x="1436" y="-10" type="line" smooth="yes"/>
      <point x="1528" y="-10"/>
      <point x="1657" y="16"/>
      <point x="1745" y="78"/>
      <point x="1795" y="178"/>
      <point x="1807" y="252" type="qcurve" smooth="yes"/>
      <point x="1811" y="277" type="line" smooth="yes"/>
      <point x="1819" y="330"/>
      <point x="1814" y="408"/>
      <point x="1784" y="466"/>
      <point x="1726" y="505"/>
      <point x="1682" y="517" type="qcurve"/>
      <point x="1725" y="527"/>
      <point x="1786" y="558"/>
      <point x="1828" y="608"/>
      <point x="1855" y="680"/>
      <point x="1865" y="730" type="qcurve" smooth="yes"/>
      <point x="1870" y="755" type="line" smooth="yes"/>
      <point x="1883" y="820"/>
      <point x="1860" y="915"/>
      <point x="1791" y="979"/>
      <point x="1674" y="1010"/>
      <point x="1592" y="1010" type="qcurve" smooth="yes"/>
      <point x="534" y="1010" type="line" smooth="yes"/>
      <point x="456" y="1010"/>
      <point x="346" y="989"/>
      <point x="274" y="939"/>
      <point x="232" y="857"/>
      <point x="221" y="797" type="qcurve" smooth="yes"/>
      <point x="205" y="707" type="line"/>
      <point x="446" y="667" type="line"/>
      <point x="467" y="786" type="line"/>
      <point x="467" y="786"/>
      <point x="467" y="786"/>
      <point x="467" y="786" type="qcurve"/>
      <point x="1522" y="786" type="line" smooth="yes"/>
      <point x="1549" y="786"/>
      <point x="1588" y="777"/>
      <point x="1611" y="758"/>
      <point x="1618" y="728"/>
      <point x="1614" y="708" type="qcurve" smooth="yes"/>
      <point x="1610" y="688" type="line" smooth="yes"/>
      <point x="1606" y="666"/>
      <point x="1590" y="636"/>
      <point x="1563" y="618"/>
      <point x="1522" y="611"/>
      <point x="1492" y="611" type="qcurve" smooth="yes"/>
      <point x="687" y="611" type="line"/>
      <point x="651" y="407" type="line"/>
      <point x="1476" y="407" type="line" smooth="yes"/>
      <point x="1504" y="407"/>
      <point x="1544" y="396"/>
      <point x="1568" y="375"/>
      <point x="1576" y="342"/>
      <point x="1571" y="320" type="qcurve"/>
      <point x="1567" y="300" type="line" smooth="yes"/>
      <point x="1562" y="276"/>
      <point x="1545" y="243"/>
      <point x="1516" y="223"/>
      <point x="1473" y="214"/>
      <point x="1442" y="214" type="qcurve" smooth="yes"/>
      <point x="367" y="214" type="line"/>
      <point x="367" y="214"/>
      <point x="367" y="214"/>
      <point x="367" y="214" type="qcurve"/>
      <point x="386" y="321" type="line"/>
      <point x="131" y="281" type="line"/>
      <point x="118" y="205" type="line" smooth="yes"/>
      <point x="109" y="150"/>
      <point x="128" y="69"/>
      <point x="187" y="16"/>
      <point x="286" y="-10"/>
      <point x="356" y="-10" type="qcurve"/>
    </contour>
  </outline>
</glyph>
<glyph name="uni0454" format="2">
  <advance width="2107"/>
  <unicode hex="0454"/>
  <outline>
    <contour>
      <point x="390" y="-10" type="line"/>
      <point x="1528" y="-10" type="line" smooth="yes"/>
      <point x="1598" y="-10"/>
      <point x="1699" y="14"/>
      <point x="1770" y="65"/>
      <point x="1812" y="146"/>
      <point x="1822" y="204" type="qcurve" smooth="yes"/>
      <point x="1841" y="316" type="line"/>
      <point x="1606" y="366" type="line"/>
      <point x="1579" y="214" type="line"/>
      <point x="1579" y="214"/>
      <point x="1579" y="214"/>
      <point x="1579" y="214" type="qcurve"/>
      <point x="421" y="214" type="line"/>
      <point x="421" y="214"/>
      <point x="421" y="214"/>
      <point x="421" y="214" type="qcurve"/>
      <point x="456" y="411" type="line"/>
      <point x="1106" y="411" type="line"/>
      <point x="1141" y="615" type="line"/>
      <point x="491" y="615" type="line"/>
      <point x="521" y="786" type="line"/>
      <point x="521" y="786"/>
      <point x="521" y="786"/>
      <point x="521" y="786" type="qcurve"/>
      <point x="1675" y="786" type="line"/>
      <point x="1675" y="786"/>
      <point x="1675" y="786"/>
      <point x="1675" y="786" type="qcurve"/>
      <point x="1650" y="644" type="line"/>
      <point x="1902" y="690" type="line"/>
      <point x="1923" y="806" type="line" smooth="yes"/>
      <point x="1932" y="861"/>
      <point x="1917" y="938"/>
      <point x="1864" y="987"/>
      <point x="1771" y="1010"/>
      <point x="1702" y="1010" type="qcurve" smooth="yes"/>
      <point x="568" y="1010" type="line" smooth="yes"/>
      <point x="500" y="1010"/>
      <point x="399" y="987"/>
      <point x="328" y="938"/>
      <point x="286" y="861"/>
      <point x="277" y="806" type="qcurve" smooth="yes"/>
      <point x="172" y="204" type="line" smooth="yes"/>
      <point x="162" y="146"/>
      <point x="175" y="65"/>
      <point x="227" y="14"/>
      <point x="320" y="-10"/>
      <point x="390" y="-10" type="qcurve"/>
    </contour>
  </outline>
  <guideline angle="260.097" color="1,0,0,1" x="1686" y="-0"/>
</glyph>
<glyph name="uni04A1" format="2">
  <advance width="2621"/>
  <unicode hex="04A1"/>
  <outline>
    <contour>
      <point x="472" y="0" type="line"/>
      <point x="720" y="0" type="line"/>
      <point x="803" y="476" type="line"/>
      <point x="1912" y="0" type="line"/>
      <point x="2474" y="0" type="line"/>
      <point x="1238" y="527" type="line"/>
      <point x="2411" y="1000" type="line"/>
      <point x="1948" y="1000" type="line"/>
      <point x="814" y="538" type="line"/>
      <point x="895" y="1000" type="line"/>
      <point x="133" y="1000" type="line"/>
      <point x="93" y="776" type="line"/>
      <point x="607" y="776" type="line"/>
    </contour>
  </outline>
  <guideline angle="260.099" color="1,0,0,1" x="895" y="1000"/>
</glyph>
<glyph name="uni04F6" format="2">
  <advance width="2074.14"/>
  <unicode hex="04F6"/>
  <outline>
    <contour>
      <point x="190" y="0" type="line" name="ATT"/>
      <point x="404" y="0" type="line"/>
      <point x="371" y="-260" type="line"/>
      <point x="601" y="-260" type="line"/>
      <point x="689" y="244" type="line"/>
      <point x="497" y="244" type="line"/>
      <point x="656" y="1156" type="line"/>
      <point x="2148" y="1156" type="line"/>
      <point x="2190" y="1400" type="line"/>
      <point x="434" y="1400" type="line"/>
    </contour>
  </outline>
</glyph>
<glyph name="bullet" format="2">
  <advance width="1042"/>
  <unicode hex="2022"/>
  <outline>
    <contour>
      <point x="278" y="516" type="line"/>
      <point x="306" y="675" type="line" smooth="yes"/>
      <point x="314" y="718"/>
      <point x="326" y="765"/>
      <point x="352" y="788"/>
      <point x="401" y="792"/>
      <point x="445" y="792" type="qcurve" smooth="yes"/>
      <point x="631" y="792" type="line" smooth="yes"/>
      <point x="675" y="792"/>
      <point x="723" y="788"/>
      <point x="742" y="765"/>
      <point x="739" y="718"/>
      <point x="731" y="675" type="qcurve" smooth="yes"/>
      <point x="703" y="516" type="line" smooth="yes"/>
      <point x="696" y="472"/>
      <point x="682" y="424"/>
      <point x="655" y="401"/>
      <point x="606" y="397"/>
      <point x="562" y="397" type="qcurve" smooth="yes"/>
      <point x="376" y="397" type="line" smooth="yes"/>
      <point x="332" y="397"/>
      <point x="285" y="401"/>
      <point x="266" y="424"/>
      <point x="271" y="472"/>
      <point x="278" y="516" type="qcurve"/>
    </contour>
  </outline>
</glyph>
<glyph name="franc" format="2">
  <advance width="2321"/>
  <unicode hex="20A3"/>
  <outline>
    <contour>
      <point x="83" y="0" type="line"/>
      <point x="131" y="278" type="line"/>
      <point x="8" y="278" type="line"/>
      <point x="40" y="462" type="line"/>
      <point x="163" y="462" type="line"/>
      <point x="325" y="1400" type="line"/>
      <point x="2281" y="1400" type="line"/>
      <point x="2239" y="1156" type="line"/>
      <point x="547" y="1156" type="line"/>
      <point x="492" y="834" type="line"/>
      <point x="1530" y="834" type="line"/>
      <point x="1487" y="590" type="line"/>
      <point x="449" y="590" type="line"/>
      <point x="427" y="462" type="line"/>
      <point x="1203" y="462" type="line"/>
      <point x="1171" y="278" type="line"/>
      <point x="395" y="278" type="line"/>
      <point x="347" y="0" type="line"/>
    </contour>
  </outline>
</glyph>
<glyph name="Euro" format="2">
  <advance width="2751" height="1448"/>
  <unicode hex="20AC"/>
  <outline>
    <contour>
      <point x="654" y="-14" type="line"/>
      <point x="2036" y="-14" type="line" smooth="yes"/>
      <point x="2129" y="-14"/>
      <point x="2265" y="17"/>
      <point x="2359" y="86"/>
      <point x="2416" y="195"/>
      <point x="2429" y="272" type="qcurve" smooth="yes"/>
      <point x="2448" y="378" type="line"/>
      <point x="2193" y="430" type="line"/>
      <point x="2158" y="230" type="line"/>
      <point x="2158" y="230"/>
      <point x="2158" y="230"/>
      <point x="2158" y="230"/>
      <point x="2158" y="230"/>
      <point x="2158" y="230" type="qcurve"/>
      <point x="618" y="230" type="line"/>
      <point x="618" y="230"/>
      <point x="618" y="230"/>
      <point x="618" y="230"/>
      <point x="618" y="230"/>
      <point x="618" y="230" type="qcurve"/>
      <point x="657" y="456" type="line"/>
      <point x="1502" y="456" type="line"/>
      <point x="1562" y="616" type="line"/>
      <point x="685" y="616" type="line"/>
      <point x="711" y="763" type="line"/>
      <point x="1625" y="763" type="line"/>
      <point x="1685" y="923" type="line"/>
      <point x="739" y="923" type="line"/>
      <point x="782" y="1170" type="line"/>
      <point x="782" y="1170"/>
      <point x="782" y="1170"/>
      <point x="782" y="1170"/>
      <point x="782" y="1170"/>
      <point x="782" y="1170" type="qcurve"/>
      <point x="2314" y="1170" type="line"/>
      <point x="2314" y="1170"/>
      <point x="2314" y="1170"/>
      <point x="2314" y="1170"/>
      <point x="2314" y="1170"/>
      <point x="2314" y="1170" type="qcurve"/>
      <point x="2284" y="996" type="line"/>
      <point x="2556" y="1044" type="line"/>
      <point x="2573" y="1140" type="line" smooth="yes"/>
      <point x="2586" y="1214"/>
      <point x="2566" y="1318"/>
      <point x="2495" y="1384"/>
      <point x="2369" y="1414"/>
      <point x="2277" y="1414" type="qcurve" smooth="yes"/>
      <point x="903" y="1414" type="line" smooth="yes"/>
      <point x="811" y="1414"/>
      <point x="676" y="1384"/>
      <point x="582" y="1318"/>
      <point x="526" y="1214"/>
      <point x="513" y="1140" type="qcurve" smooth="yes"/>
      <point x="475" y="923" type="line"/>
      <point x="334" y="923" type="line"/>
      <point x="306" y="763" type="line"/>
      <point x="447" y="763" type="line"/>
      <point x="421" y="616" type="line"/>
      <point x="281" y="616" type="line"/>
      <point x="253" y="456" type="line"/>
      <point x="393" y="456" type="line"/>
      <point x="361" y="272" type="line" smooth="yes"/>
      <point x="347" y="195"/>
      <point x="366" y="86"/>
      <point x="436" y="17"/>
      <point x="561" y="-14"/>
      <point x="654" y="-14" type="qcurve"/>
    </contour>
  </outline>
</glyph>
<glyph name="uni20BA" format="2">
  <advance width="2719"/>
  <unicode hex="20BA"/>
  <outline>
    <contour>
      <point x="443" y="0" type="line"/>
      <point x="541" y="561" type="line"/>
      <point x="140" y="424" type="line"/>
      <point x="168" y="584" type="line"/>
      <point x="569" y="721" type="line"/>
      <point x="588" y="831" type="line"/>
      <point x="187" y="694" type="line"/>
      <point x="215" y="854" type="line"/>
      <point x="616" y="991" type="line"/>
      <point x="687" y="1400" type="line"/>
      <point x="951" y="1400" type="line"/>
      <point x="897" y="1087" type="line"/>
      <point x="1618" y="1334" type="line"/>
      <point x="1590" y="1174" type="line"/>
      <point x="869" y="927" type="line"/>
      <point x="850" y="817" type="line"/>
      <point x="1571" y="1064" type="line"/>
      <point x="1543" y="904" type="line"/>
      <point x="822" y="657" type="line"/>
      <point x="750" y="244" type="line"/>
      <point x="1632" y="244" type="line" smooth="yes"/>
      <point x="1729" y="244"/>
      <point x="1896" y="263"/>
      <point x="2036" y="307"/>
      <point x="2148" y="379"/>
      <point x="2233" y="483"/>
      <point x="2291" y="622"/>
      <point x="2307" y="712" type="qcurve"/>
      <point x="2576" y="660" type="line"/>
      <point x="2555" y="541"/>
      <point x="2463" y="350"/>
      <point x="2328" y="203"/>
      <point x="2154" y="98"/>
      <point x="1950" y="31"/>
      <point x="1721" y="0"/>
      <point x="1597" y="0" type="qcurve" smooth="yes"/>
    </contour>
  </outline>
</glyph>
<glyph name="uni25A0" format="2">
  <advance width="2020"/>
  <unicode hex="25A0"/>
  <outline>
    <contour>
      <point x="190" y="0" type="line"/>
      <point x="434" y="1400" type="line"/>
      <point x="1834" y="1400" type="line"/>
      <point x="1590" y="0" type="line"/>
    </contour>
  </outline>
</glyph>
<glyph name="uni27E8" format="2">
  <advance width="1083.54"/>
  <unicode hex="27E8"/>
  <outline>
    <contour>
      <point x="586.286" y="0" type="line"/>
      <point x="813.286" y="0" type="line"/>
      <point x="350.286" y="681" type="line"/>
      <point x="1090.29" y="1400" type="line"/>
      <point x="830.286" y="1400" type="line"/>
      <point x="110.286" y="700" type="line"/>
      <point x="586.286" y="0" type="line"/>
    </contour>
  </outline>
</glyph>
<glyph name="a.sc" format="2">
  <advance width="2196" height="1448"/>
  <anchor x="1189" y="1210" name="top"/>
  <anchor x="952" y="-150" name="bottom"/>
  <anchor x="1952" y="0" name="ogonek"/>
  <outline>
    <contour>
      <point x="1067" y="1060" type="line"/>
      <point x="-120" y="0" type="line"/>
      <point x="199" y="0" type="line"/>
      <point x="1117" y="815" type="line"/>
      <point x="1753" y="0" type="line"/>
      <point x="2076" y="0" type="line"/>
      <point x="1252" y="1060" type="line"/>
    </contour>
    <contour>
      <point x="294" y="234" type="line"/>
      <point x="1716" y="234" type="line"/>
      <point x="1545" y="457" type="line"/>
      <point x="520" y="457" type="line"/>
    </contour>
  </outline>
</glyph>
<glyph name="eight.dnom" format="2">
  <advance width="1726"/>
  <outline>
    <contour>
      <point x="337" y="207" type="line"/>
      <point x="336" y="199"/>
      <point x="337" y="185"/>
      <point x="342" y="174"/>
      <point x="351" y="167"/>
      <point x="358" y="167" type="qcurve" smooth="yes"/>
      <point x="1183" y="167" type="line" smooth="yes"/>
      <point x="1190" y="167"/>
      <point x="1202" y="174"/>
      <point x="1211" y="185"/>
      <point x="1217" y="199"/>
      <point x="1218" y="207" type="qcurve"/>
      <point x="1229" y="271" type="line"/>
      <point x="1231" y="278"/>
      <point x="1229" y="290"/>
      <point x="1224" y="299"/>
      <point x="1214" y="304"/>
      <point x="1208" y="304" type="qcurve" smooth="yes"/>
      <point x="379" y="304" type="line" smooth="yes"/>
      <point x="373" y="304"/>
      <point x="363" y="299"/>
      <point x="355" y="290"/>
      <point x="350" y="278"/>
      <point x="348" y="271" type="qcurve"/>
    </contour>
    <contour>
      <point x="1266" y="580" type="line"/>
      <point x="1268" y="588"/>
      <point x="1266" y="601"/>
      <point x="1261" y="611"/>
      <point x="1252" y="617"/>
      <point x="1245" y="617" type="qcurve" smooth="yes"/>
      <point x="455" y="617" type="line" smooth="yes"/>
      <point x="448" y="617"/>
      <point x="436" y="611"/>
      <point x="427" y="601"/>
      <point x="421" y="588"/>
      <point x="419" y="580" type="qcurve"/>
      <point x="407" y="511" type="line" smooth="yes"/>
      <point x="406" y="505"/>
      <point x="407" y="494"/>
      <point x="412" y="487"/>
      <point x="419" y="482"/>
      <point x="425" y="482" type="qcurve" smooth="yes"/>
      <point x="1226" y="482" type="line" smooth="yes"/>
      <point x="1232" y="482"/>
      <point x="1241" y="487"/>
      <point x="1249" y="494"/>
      <point x="1253" y="505"/>
      <point x="1254" y="511" type="qcurve" smooth="yes"/>
    </contour>
    <contour>
      <point x="127" y="146" type="line"/>
      <point x="146" y="256" type="line" smooth="yes"/>
      <point x="153" y="294"/>
      <point x="181" y="344"/>
      <point x="226" y="376"/>
      <point x="288" y="394"/>
      <point x="329" y="398" type="qcurve"/>
      <point x="254" y="409"/>
      <point x="202" y="482"/>
      <point x="212" y="540" type="qcurve" smooth="yes"/>
      <point x="231" y="645" type="line" smooth="yes"/>
      <point x="243" y="714"/>
      <point x="349" y="795"/>
      <point x="442" y="795" type="qcurve" smooth="yes"/>
      <point x="1319" y="795" type="line" smooth="yes"/>
      <point x="1412" y="795"/>
      <point x="1490" y="714"/>
      <point x="1478" y="645" type="qcurve" smooth="yes"/>
      <point x="1459" y="540" type="line" smooth="yes"/>
      <point x="1454" y="511"/>
      <point x="1430" y="463"/>
      <point x="1390" y="427"/>
      <point x="1333" y="403"/>
      <point x="1294" y="398" type="qcurve"/>
      <point x="1333" y="394"/>
      <point x="1390" y="377"/>
      <point x="1423" y="345"/>
      <point x="1434" y="295"/>
      <point x="1427" y="256" type="qcurve" smooth="yes"/>
      <point x="1408" y="146" type="line" smooth="yes"/>
      <point x="1400" y="101"/>
      <point x="1360" y="41"/>
      <point x="1301" y="4"/>
      <point x="1226" y="-11"/>
      <point x="1184" y="-11" type="qcurve" smooth="yes"/>
      <point x="295" y="-11" type="line" smooth="yes"/>
      <point x="253" y="-11"/>
      <point x="185" y="4"/>
      <point x="138" y="41"/>
      <point x="119" y="101"/>
      <point x="127" y="146" type="qcurve"/>
    </contour>
  </outline>
</glyph>
<glyph name="five.dnom" format="2">
  <advance width="1550"/>
  <outline>
    <contour>
      <point x="664" y="-7" type="line"/>
      <point x="582" y="-7"/>
      <point x="418" y="-2"/>
      <point x="275" y="7"/>
      <point x="163" y="19"/>
      <point x="133" y="26" type="qcurve"/>
      <point x="118" y="202" type="line"/>
      <point x="160" y="192"/>
      <point x="274" y="177"/>
      <point x="420" y="168"/>
      <point x="600" y="164"/>
      <point x="708" y="164" type="qcurve" smooth="yes"/>
      <point x="810" y="164"/>
      <point x="947" y="175"/>
      <point x="1031" y="196"/>
      <point x="1070" y="230"/>
      <point x="1074" y="252" type="qcurve" smooth="yes"/>
      <point x="1078" y="276"/>
      <point x="1050" y="309"/>
      <point x="965" y="330"/>
      <point x="810" y="339"/>
      <point x="687" y="339" type="qcurve" smooth="yes"/>
      <point x="596" y="339"/>
      <point x="445" y="337"/>
      <point x="313" y="331"/>
      <point x="194" y="321"/>
      <point x="135" y="313" type="qcurve"/>
      <point x="256" y="784" type="line"/>
      <point x="1260" y="784" type="line"/>
      <point x="1190" y="606" type="line"/>
      <point x="370" y="606" type="line"/>
      <point x="342" y="497" type="line"/>
      <point x="363" y="500"/>
      <point x="436" y="505"/>
      <point x="537" y="508"/>
      <point x="667" y="509"/>
      <point x="746" y="509" type="qcurve" smooth="yes"/>
      <point x="907" y="509"/>
      <point x="1122" y="481"/>
      <point x="1245" y="420"/>
      <point x="1287" y="324"/>
      <point x="1275" y="257" type="qcurve" smooth="yes"/>
      <point x="1263" y="185"/>
      <point x="1183" y="85"/>
      <point x="1036" y="22"/>
      <point x="817" y="-7"/>
      <point x="664" y="-7" type="qcurve"/>
    </contour>
  </outline>
</glyph>
<glyph name="hbar.sc" format="2">
  <advance width="2501"/>
  <outline>
    <contour>
      <point x="321" y="759" type="line"/>
      <point x="189" y="0" type="line"/>
      <point x="439" y="0" type="line"/>
      <point x="516" y="439" type="line"/>
      <point x="1900" y="439" type="line"/>
      <point x="1823" y="0" type="line"/>
      <point x="2073" y="0" type="line"/>
      <point x="2205" y="759" type="line"/>
      <point x="2305" y="759" type="line"/>
      <point x="2342" y="967" type="line"/>
      <point x="2242" y="967" type="line"/>
      <point x="2258" y="1060" type="line"/>
      <point x="2008" y="1060" type="line"/>
      <point x="1992" y="967" type="line"/>
      <point x="608" y="967" type="line"/>
      <point x="624" y="1060" type="line"/>
      <point x="374" y="1060" type="line"/>
      <point x="358" y="967" type="line"/>
      <point x="258" y="967" type="line"/>
      <point x="221" y="759" type="line"/>
    </contour>
    <contour>
      <point x="1955" y="759" type="line"/>
      <point x="1939" y="666" type="line"/>
      <point x="555" y="666" type="line"/>
      <point x="571" y="759" type="line"/>
    </contour>
  </outline>
</glyph>
<glyph name="ijdot" format="2">
  <advance width="789.609"/>
  <anchor x="485" y="1150" name="_top"/>
  <outline>
    <contour>
      <point x="364.491" y="1230" type="line"/>
      <point x="378.491" y="1312" type="line" smooth="yes"/>
      <point x="384.491" y="1344"/>
      <point x="393.491" y="1380"/>
      <point x="413.491" y="1397"/>
      <point x="450.491" y="1400"/>
      <point x="483.491" y="1400" type="qcurve" smooth="yes"/>
      <point x="567.491" y="1400" type="line" smooth="yes"/>
      <point x="600.491" y="1400"/>
      <point x="636.491" y="1397"/>
      <point x="650.491" y="1380"/>
      <point x="648.491" y="1344"/>
      <point x="642.491" y="1312" type="qcurve" smooth="yes"/>
      <point x="628.491" y="1230" type="line" smooth="yes"/>
      <point x="622.491" y="1197"/>
      <point x="612.491" y="1161"/>
      <point x="592.491" y="1143"/>
      <point x="555.491" y="1140"/>
      <point x="522.491" y="1140" type="qcurve" smooth="yes"/>
      <point x="438.491" y="1140" type="line" smooth="yes"/>
      <point x="405.491" y="1140"/>
      <point x="369.491" y="1143"/>
      <point x="355.491" y="1161"/>
      <point x="358.491" y="1197"/>
      <point x="364.491" y="1230" type="qcurve"/>
    </contour>
  </outline>
</glyph>
<glyph name="l.sc" format="2">
  <advance width="1881.03"/>
  <anchor x="525" y="1210" name="top"/>
  <anchor x="944" y="-150" name="bottom"/>
  <anchor x="280" y="700" name="left"/>
  <anchor x="1535" y="1060" name="right"/>
  <anchor x="1354" y="560" name="eldot"/>
  <outline>
    <contour>
      <point x="189.049" y="0" type="line"/>
      <point x="374.049" y="1060" type="line"/>
      <point x="625.049" y="1060" type="line"/>
      <point x="480.049" y="227" type="line"/>
      <point x="1791.05" y="227" type="line"/>
      <point x="1751.05" y="0" type="line"/>
    </contour>
  </outline>
</glyph>
<glyph name="n.sc" format="2">
  <advance width="2514.05"/>
  <anchor x="1348.05" y="1210" name="top"/>
  <anchor x="1111.05" y="-150" name="bottom"/>
  <outline>
    <contour>
      <point x="189.049" y="0" type="line"/>
      <point x="423.049" y="0" type="line"/>
      <point x="560.049" y="782" type="line"/>
      <point x="1895.05" y="0" type="line"/>
      <point x="2084.05" y="0" type="line"/>
      <point x="2269.05" y="1060" type="line"/>
      <point x="2035.05" y="1060" type="line"/>
      <point x="1898.05" y="278" type="line"/>
      <point x="563.049" y="1060" type="line"/>
      <point x="374.049" y="1060" type="line"/>
      <point x="189.049" y="0" type="line"/>
    </contour>
  </outline>
</glyph>
<glyph name="one.tnum" format="2">
  <advance width="2082" height="1448"/>
  <outline>
    <contour>
      <point x="394" y="1260" type="line"/>
      <point x="361" y="1070" type="line"/>
      <point x="989" y="1124" type="line"/>
      <point x="836" y="244" type="line"/>
      <point x="82" y="244" type="line"/>
      <point x="39" y="0" type="line"/>
      <point x="1761" y="0" type="line"/>
      <point x="1804" y="244" type="line"/>
      <point x="1100" y="244" type="line"/>
      <point x="1304" y="1414" type="line"/>
    </contour>
  </outline>
  <guideline angle="90" color="0.4,0.4,0.4,1" name="halfwidth" x="1041" y="0"/>
</glyph>
<glyph name="periodcentered.sc" format="2">
  <anchor x="-404" y="1270" name="_eldot"/>
  <outline>
    <contour>
      <point x="-530" y="1240" type="line"/>
      <point x="-519" y="1302" type="line" smooth="yes"/>
      <point x="-513" y="1334"/>
      <point x="-504" y="1370"/>
      <point x="-483" y="1387"/>
      <point x="-446" y="1390"/>
      <point x="-413" y="1390" type="qcurve" smooth="yes"/>
      <point x="-353" y="1390" type="line" smooth="yes"/>
      <point x="-320" y="1390"/>
      <point x="-284" y="1387"/>
      <point x="-270" y="1370"/>
      <point x="-273" y="1334"/>
      <point x="-279" y="1302" type="qcurve" smooth="yes"/>
      <point x="-290" y="1240" type="line" smooth="yes"/>
      <point x="-296" y="1207"/>
      <point x="-305" y="1171"/>
      <point x="-325" y="1153"/>
      <point x="-362" y="1150"/>
      <point x="-395" y="1150" type="qcurve" smooth="yes"/>
      <point x="-455" y="1150" type="line" smooth="yes"/>
      <point x="-488" y="1150"/>
      <point x="-524" y="1153"/>
      <point x="-538" y="1171"/>
      <point x="-536" y="1207"/>
      <point x="-530" y="1240" type="qcurve"/>
    </contour>
  </outline>
</glyph>
<glyph name="q.alt.sc" format="2">
  <advance width="2526"/>
  <anchor x="1355" y="1223" name="top"/>
  <anchor x="1071" y="-405" name="bottom"/>
  <outline>
    <contour>
      <point x="208" y="200" type="line" smooth="yes"/>
      <point x="195" y="128"/>
      <point x="223" y="43"/>
      <point x="291" y="-1"/>
      <point x="391" y="-13"/>
      <point x="451" y="-13" type="qcurve" smooth="yes"/>
      <point x="1828" y="-13" type="line" smooth="yes"/>
      <point x="1892" y="-13"/>
      <point x="1998" y="0"/>
      <point x="2080" y="44"/>
      <point x="2136" y="129"/>
      <point x="2148" y="200" type="qcurve" smooth="yes"/>
      <point x="2265" y="871" type="line" smooth="yes"/>
      <point x="2277" y="942"/>
      <point x="2245" y="1023"/>
      <point x="2173" y="1063"/>
      <point x="2073" y="1073"/>
      <point x="2017" y="1073" type="qcurve" smooth="yes"/>
      <point x="640" y="1073" type="line" smooth="yes"/>
      <point x="580" y="1073"/>
      <point x="475" y="1061"/>
      <point x="393" y="1020"/>
      <point x="337" y="940"/>
      <point x="325" y="871" type="qcurve" smooth="yes"/>
    </contour>
    <contour>
      <point x="570" y="846" type="line"/>
      <point x="570" y="846"/>
      <point x="570" y="846"/>
      <point x="570" y="846" type="qcurve"/>
      <point x="2010" y="846" type="line"/>
      <point x="2010" y="846"/>
      <point x="2010" y="846"/>
      <point x="2010" y="846" type="qcurve"/>
      <point x="1900" y="214" type="line"/>
      <point x="1900" y="214"/>
      <point x="1900" y="214"/>
      <point x="1900" y="214" type="qcurve"/>
      <point x="460" y="214" type="line"/>
      <point x="460" y="214"/>
      <point x="460" y="214"/>
      <point x="460" y="214" type="qcurve"/>
    </contour>
    <contour>
      <point x="1611" y="-255" type="line"/>
      <point x="1924" y="-255" type="line"/>
      <point x="1728" y="0" type="line"/>
      <point x="1432" y="0" type="line"/>
      <point x="1611" y="-255" type="line"/>
    </contour>
  </outline>
</glyph>
<glyph name="sterling.alt" format="2">
  <advance width="2725"/>
  <outline>
    <contour>
      <point x="-95" y="0" type="line"/>
      <point x="2021" y="0" type="line" smooth="yes"/>
      <point x="2114" y="0"/>
      <point x="2250" y="31"/>
      <point x="2345" y="100"/>
      <point x="2402" y="209"/>
      <point x="2415" y="286" type="qcurve" smooth="yes"/>
      <point x="2451" y="492" type="line"/>
      <point x="2196" y="544" type="line"/>
      <point x="2161" y="344" type="line" smooth="yes"/>
      <point x="2157" y="318"/>
      <point x="2139" y="280"/>
      <point x="2110" y="256"/>
      <point x="2070" y="244"/>
      <point x="2044" y="244" type="qcurve" smooth="yes"/>
      <point x="613" y="244" type="line"/>
      <point x="615" y="252"/>
      <point x="618" y="267"/>
      <point x="619" y="274" type="qcurve"/>
      <point x="672" y="575" type="line"/>
      <point x="1508" y="575" type="line"/>
      <point x="1568" y="735" type="line"/>
      <point x="700" y="735" type="line"/>
      <point x="758" y="1070" type="line" smooth="yes"/>
      <point x="763" y="1096"/>
      <point x="781" y="1134"/>
      <point x="809" y="1158"/>
      <point x="849" y="1170"/>
      <point x="875" y="1170" type="qcurve" smooth="yes"/>
      <point x="2197" y="1170" type="line" smooth="yes"/>
      <point x="2223" y="1170"/>
      <point x="2259" y="1158"/>
      <point x="2279" y="1134"/>
      <point x="2285" y="1096"/>
      <point x="2280" y="1070" type="qcurve" smooth="yes"/>
      <point x="2249" y="896" type="line"/>
      <point x="2522" y="944" type="line"/>
      <point x="2556" y="1140" type="line" smooth="yes"/>
      <point x="2569" y="1214"/>
      <point x="2549" y="1318"/>
      <point x="2477" y="1384"/>
      <point x="2352" y="1414"/>
      <point x="2260" y="1414" type="qcurve" smooth="yes"/>
      <point x="896" y="1414" type="line" smooth="yes"/>
      <point x="805" y="1414"/>
      <point x="669" y="1384"/>
      <point x="575" y="1318"/>
      <point x="519" y="1214"/>
      <point x="506" y="1140" type="qcurve" smooth="yes"/>
      <point x="435" y="735" type="line"/>
      <point x="217" y="735" type="line"/>
      <point x="189" y="575" type="line"/>
      <point x="407" y="575" type="line"/>
      <point x="367" y="344" type="line" smooth="yes"/>
      <point x="363" y="318"/>
      <point x="345" y="280"/>
      <point x="316" y="256"/>
      <point x="276" y="244"/>
      <point x="250" y="244" type="qcurve" smooth="yes"/>
      <point x="-52" y="244" type="line"/>
    </contour>
  </outline>
  <guideline angle="0" x="0" y="1000"/>
  <guideline angle="90" x="782" y="0"/>
  <guideline angle="0" x="0" y="1000"/>
  <guideline angle="0" x="0" y="1000"/>
</glyph>
<glyph name="tildecomb.case" format="2">
  <anchor x="79" y="1150" name="_top"/>
  <anchor x="141" y="1500" name="top"/>
  <outline>
    <contour>
      <point x="-392" y="1159" type="line"/>
      <point x="-366" y="1231"/>
      <point x="-295" y="1324"/>
      <point x="-214" y="1379"/>
      <point x="-131" y="1400"/>
      <point x="-93" y="1400" type="qcurve" smooth="yes"/>
      <point x="-60" y="1400"/>
      <point x="10" y="1388"/>
      <point x="81" y="1371"/>
      <point x="150" y="1351"/>
      <point x="217" y="1334"/>
      <point x="279" y="1322"/>
      <point x="306" y="1322" type="qcurve" smooth="yes"/>
      <point x="326" y="1322"/>
      <point x="362" y="1330"/>
      <point x="393" y="1348"/>
      <point x="419" y="1378"/>
      <point x="428" y="1400" type="qcurve"/>
      <point x="591" y="1371" type="line"/>
      <point x="565" y="1298"/>
      <point x="493" y="1205"/>
      <point x="413" y="1151"/>
      <point x="330" y="1130"/>
      <point x="292" y="1130" type="qcurve" smooth="yes"/>
      <point x="259" y="1130"/>
      <point x="189" y="1142"/>
      <point x="119" y="1159"/>
      <point x="49" y="1179"/>
      <point x="-17" y="1196"/>
      <point x="-79" y="1208"/>
      <point x="-106" y="1208" type="qcurve" smooth="yes"/>
      <point x="-126" y="1208"/>
      <point x="-162" y="1201"/>
      <point x="-194" y="1183"/>
      <point x="-220" y="1153"/>
      <point x="-229" y="1130" type="qcurve"/>
    </contour>
  </outline>
  <guideline angle="90" x="-593" y="0"/>
  <guideline angle="90" x="353" y="0"/>
</glyph>
<glyph name="uni0304.case" format="2">
  <anchor x="84" y="1150" name="_top"/>
  <anchor x="137" y="1450" name="top"/>
  <outline>
    <contour>
      <point x="-362" y="1350" type="line"/>
      <point x="601" y="1350" type="line"/>
      <point x="571" y="1180" type="line"/>
      <point x="-392" y="1180" type="line"/>
    </contour>
  </outline>
</glyph>
<glyph name="uni0309.case" format="2">
  <anchor x="77" y="1150" name="_top"/>
  <anchor x="-18" y="1100" name="_topright"/>
  <outline>
    <contour>
      <point x="-18" y="1100" type="line"/>
      <point x="171" y="1100" type="line"/>
      <point x="201" y="1110"/>
      <point x="261" y="1137"/>
      <point x="311" y="1173"/>
      <point x="346" y="1222"/>
      <point x="352" y="1254" type="qcurve" smooth="yes"/>
      <point x="358" y="1287"/>
      <point x="337" y="1349"/>
      <point x="281" y="1395"/>
      <point x="191" y="1423"/>
      <point x="129" y="1423" type="qcurve" smooth="yes"/>
      <point x="97" y="1423"/>
      <point x="26" y="1416"/>
      <point x="-45" y="1401"/>
      <point x="-113" y="1379"/>
      <point x="-143" y="1364" type="qcurve"/>
      <point x="-124" y="1256" type="line"/>
      <point x="-109" y="1261"/>
      <point x="-71" y="1269"/>
      <point x="-29" y="1275"/>
      <point x="13" y="1278"/>
      <point x="31" y="1278" type="qcurve" smooth="yes"/>
      <point x="59" y="1278"/>
      <point x="99" y="1270"/>
      <point x="123" y="1254"/>
      <point x="133" y="1230"/>
      <point x="130" y="1214" type="qcurve"/>
      <point x="127" y="1195"/>
      <point x="95" y="1162"/>
      <point x="52" y="1133"/>
      <point x="3" y="1109"/>
      <point x="-18" y="1100" type="qcurve"/>
    </contour>
  </outline>
</glyph>
<glyph name="uni0443.sc" format="2">
  <advance width="2392"/>
  <anchor x="1287" y="1210" name="top"/>
  <outline>
    <contour>
      <point x="227" y="269" type="line"/>
      <point x="215" y="200" type="line" smooth="yes"/>
      <point x="203" y="130"/>
      <point x="228" y="46"/>
      <point x="294" y="1"/>
      <point x="398" y="-13"/>
      <point x="464" y="-13" type="qcurve" smooth="yes"/>
      <point x="1680" y="-13" type="line" smooth="yes"/>
      <point x="1747" y="-13"/>
      <point x="1857" y="1"/>
      <point x="1939" y="46"/>
      <point x="1994" y="130"/>
      <point x="2006" y="200" type="qcurve" smooth="yes"/>
      <point x="2156" y="1060" type="line"/>
      <point x="1906" y="1060" type="line"/>
      <point x="1835" y="653" type="line"/>
      <point x="569" y="653" type="line"/>
      <point x="569" y="653"/>
      <point x="569" y="653"/>
      <point x="569" y="653" type="qcurve"/>
      <point x="640" y="1060" type="line"/>
      <point x="390" y="1060" type="line"/>
      <point x="317" y="641" type="line" smooth="yes"/>
      <point x="305" y="571"/>
      <point x="330" y="486"/>
      <point x="396" y="441"/>
      <point x="499" y="426"/>
      <point x="565" y="426" type="qcurve" smooth="yes"/>
      <point x="1795" y="426" type="line"/>
      <point x="1758" y="214" type="line"/>
      <point x="1758" y="214"/>
      <point x="1758" y="214"/>
      <point x="1758" y="214" type="qcurve"/>
      <point x="467" y="214" type="line"/>
      <point x="467" y="214"/>
      <point x="467" y="214"/>
      <point x="467" y="214" type="qcurve"/>
      <point x="485" y="317" type="line"/>
    </contour>
  </outline>
</glyph>
